# xmcd
#
# Track frame offsets: 
#        150
#        16716
#        33949
#        54231
#        77357
#        97620
#        116119
#        126184
#        146360
#        166291
#        181502
#
# Disc length: 2656 seconds
#
# Revision: 0
# Processed by: cddbd v1.5.2PL0 Copyright (c) Steve Scherf et al.
# Submitted via: ExactAudioCopy v0.99pb5
#
DISCID=700a5e0b
DTITLE=Oli Brown - Open Road
DYEAR=2008
DGENRE=Blues
TTITLE0=Psycho
TTITLE1=Open Road
TTITLE2=Stone Cold (Roxanne)
TTITLE3=Can't Get Next to You
TTITLE4=Shade of Grey
TTITLE5=All the King Horses
TTITLE6=Black Betty
TTITLE7=Missing You
TTITLE8=New Groove
TTITLE9=Played By the Devil
TTITLE10=Complicated
EXTD=
EXTT0=
EXTT1=
EXTT2=
EXTT3=
EXTT4=
EXTT5=
EXTT6=
EXTT7=
EXTT8=
EXTT9=
EXTT10=
PLAYORDER=
